<?xml version="1.0" standalone="no"?>
<!DOCTYPE svg PUBLIC "-//W3C//DTD SVG 20010904//EN"
 "http://www.w3.org/TR/2001/REC-SVG-20010904/DTD/svg10.dtd">
<svg version="1.0" xmlns="http://www.w3.org/2000/svg"
 width="700.000000pt" height="700.000000pt" viewBox="0 0 700.000000 700.000000"
 preserveAspectRatio="xMidYMid meet">
<metadata>
Created by potrace 1.14, written by Peter Selinger 2001-2017
</metadata>
<g transform="translate(0.000000,700.000000) scale(0.100000,-0.100000)"
fill="#000000" stroke="none">
<path d="M3278 6995 c-1 -1 -42 -5 -89 -9 -47 -4 -96 -9 -109 -11 -12 -2 -48
-7 -79 -11 -31 -3 -65 -8 -76 -10 -11 -2 -45 -8 -75 -14 -81 -15 -84 -16 -215
-48 -163 -41 -358 -106 -462 -153 -24 -10 -46 -19 -50 -19 -13 0 -298 -143
-361 -181 -35 -22 -66 -39 -68 -39 -11 0 -258 -170 -339 -233 -236 -184 -432
-381 -621 -623 -109 -139 -274 -388 -274 -414 0 -4 -4 -10 -9 -12 -12 -4 -162
-314 -206 -428 -90 -229 -172 -528 -200 -729 -2 -14 -6 -42 -10 -62 -6 -40
-10 -75 -22 -199 -15 -165 -8 -598 12 -711 2 -13 7 -44 9 -69 28 -250 120
-592 234 -865 172 -413 426 -796 738 -1110 142 -144 313 -291 434 -375 19 -13
37 -27 40 -30 13 -14 99 -70 108 -70 6 0 12 -4 14 -8 5 -13 211 -133 333 -193
252 -126 550 -232 800 -285 80 -17 211 -41 274 -50 25 -3 57 -8 71 -10 163
-25 682 -25 841 1 13 2 47 6 74 10 28 3 57 8 65 10 8 2 32 6 53 9 278 41 651
165 957 316 605 300 1144 813 1477 1405 38 67 183 361 183 371 0 3 6 20 14 37
27 64 36 90 75 205 40 118 91 305 107 392 2 14 7 36 10 50 3 14 7 37 9 52 2
15 8 53 14 85 5 32 13 85 16 118 4 33 9 71 11 85 9 49 11 526 3 612 -13 140
-22 208 -39 308 -6 36 -13 79 -16 95 -13 72 -76 309 -109 409 -79 237 -183
470 -291 653 -33 54 -61 103 -64 108 -11 22 -135 203 -179 260 -197 256 -439
497 -676 675 -97 72 -251 180 -258 180 -2 0 -42 23 -88 51 -93 56 -259 141
-359 184 -36 15 -83 35 -105 45 -165 72 -528 173 -745 206 -25 3 -54 8 -65 10
-10 2 -47 6 -81 10 -33 3 -74 8 -90 10 -33 5 -540 14 -546 9z"/>
</g>
</svg>
