<?xml version="1.0" standalone="no"?>
<!DOCTYPE svg PUBLIC "-//W3C//DTD SVG 20010904//EN"
 "http://www.w3.org/TR/2001/REC-SVG-20010904/DTD/svg10.dtd">
<svg version="1.0" xmlns="http://www.w3.org/2000/svg"
 width="700.000000pt" height="700.000000pt" viewBox="0 0 700.000000 700.000000"
 preserveAspectRatio="xMidYMid meet">
<metadata>
Created by potrace 1.14, written by Peter Selinger 2001-2017
</metadata>
<g transform="translate(0.000000,700.000000) scale(0.100000,-0.100000)"
fill="#000000" stroke="none">
<path d="M3019 6986 c-2 -2 -42 -6 -89 -10 -75 -6 -161 -17 -227 -30 -108 -22
-403 -123 -588 -202 -159 -68 -449 -216 -541 -276 -78 -50 -203 -149 -320
-253 -113 -99 -423 -408 -480 -478 -27 -33 -55 -66 -63 -74 -29 -31 -201 -275
-201 -287 0 -2 -21 -42 -48 -88 -74 -129 -181 -351 -265 -550 -47 -111 -59
-140 -62 -148 -1 -3 -4 -12 -7 -20 -19 -49 -70 -223 -78 -270 -22 -113 -25
-219 -25 -765 0 -701 6 -784 65 -987 71 -241 241 -617 390 -863 70 -117 221
-344 244 -368 6 -7 44 -52 84 -100 133 -159 317 -337 517 -502 73 -60 233
-173 255 -180 11 -4 20 -11 20 -16 0 -5 5 -9 10 -9 6 0 27 -11 48 -23 94 -60
263 -146 375 -193 34 -14 76 -32 92 -39 239 -106 499 -187 680 -210 125 -16
199 -21 525 -32 405 -14 694 -8 820 16 30 6 66 13 80 16 125 23 309 79 500
152 80 30 149 59 155 64 5 5 15 9 22 9 24 0 278 130 443 227 211 124 286 178
465 338 340 304 640 690 836 1075 105 207 271 671 294 820 24 160 29 227 40
533 18 470 12 718 -21 882 -44 219 -136 520 -227 742 -60 146 -171 364 -261
513 -125 205 -413 534 -680 775 -49 44 -94 85 -100 90 -167 151 -491 346 -781
470 -219 94 -445 174 -543 191 -14 3 -28 7 -32 9 -3 2 -33 7 -65 10 -33 4 -68
9 -78 11 -20 3 -149 13 -277 20 -107 5 -896 14 -901 10z"/>
</g>
</svg>
