<?xml version="1.0" standalone="no"?>
<!DOCTYPE svg PUBLIC "-//W3C//DTD SVG 20010904//EN"
 "http://www.w3.org/TR/2001/REC-SVG-20010904/DTD/svg10.dtd">
<svg version="1.0" xmlns="http://www.w3.org/2000/svg"
 width="700.000000pt" height="700.000000pt" viewBox="0 0 700.000000 700.000000"
 preserveAspectRatio="xMidYMid meet">
<metadata>
Created by potrace 1.14, written by Peter Selinger 2001-2017
</metadata>
<g transform="translate(0.000000,700.000000) scale(0.100000,-0.100000)"
fill="#000000" stroke="none">
<path d="M3005 6870 c-139 -25 -155 -28 -285 -56 -133 -30 -122 -27 -180 -43
-383 -108 -754 -295 -1106 -559 -254 -189 -466 -408 -686 -707 -182 -248 -324
-512 -428 -795 -23 -63 -43 -119 -45 -125 -1 -5 -5 -17 -8 -25 -8 -20 -55
-189 -61 -220 -3 -14 -17 -79 -31 -145 -15 -66 -28 -142 -31 -170 -2 -27 -6
-63 -9 -80 -18 -113 -23 -479 -11 -690 12 -194 20 -266 48 -390 10 -49 21
-101 24 -115 41 -212 162 -541 285 -780 69 -133 222 -378 287 -460 11 -14 57
-72 103 -129 97 -124 291 -325 404 -420 147 -124 464 -351 491 -351 2 0 21
-11 42 -23 125 -79 417 -212 592 -271 97 -32 336 -96 414 -110 14 -3 35 -7 45
-11 19 -6 36 -8 156 -23 81 -10 862 -9 952 1 175 19 468 92 693 172 97 35 295
122 342 152 21 13 41 23 44 23 24 0 283 161 454 281 101 71 263 211 385 334
118 118 292 323 341 400 10 17 21 32 25 35 4 3 40 57 82 120 72 110 217 383
266 500 59 141 166 460 155 460 -2 0 3 18 11 40 12 35 54 239 69 340 15 100
21 233 21 495 0 346 -8 450 -50 655 -3 14 -7 37 -10 51 -15 80 -80 311 -118
421 -133 374 -274 628 -554 993 -158 207 -480 507 -711 664 -271 183 -635 363
-891 438 -411 121 -511 133 -1076 137 -286 3 -356 0 -440 -14z m2260 -1770
l80 -69 0 -1098 0 -1098 -1717 -3 -1718 -2 1 1102 0 1103 82 68 81 67 1556 0
1555 -1 80 -69z m154 -2536 c28 -47 51 -87 51 -89 0 -1 56 -98 125 -216 l125
-214 0 -70 c0 -38 -4 -75 -8 -80 -4 -6 -39 -38 -78 -73 l-72 -62 -1932 0
-1931 0 -80 78 -79 79 0 65 0 66 166 289 c92 158 171 294 176 301 8 9 370 12
1749 12 l1738 0 50 -86z"/>
<path d="M2310 4862 l-116 -3 0 -869 c0 -592 4 -870 11 -871 5 -1 650 -2 1433
-3 l1422 -1 0 872 0 873 -72 0 c-40 0 -633 1 -1318 3 -685 1 -1297 1 -1360 -1z
m1118 -155 c8 -9 16 -35 18 -59 1 -24 3 -46 3 -49 1 -4 7 -9 14 -12 6 -3 35
-14 63 -25 l51 -21 34 29 c53 46 85 41 150 -25 71 -72 76 -93 35 -147 l-32
-42 25 -62 26 -62 48 -5 c72 -6 81 -21 80 -123 -1 -101 -8 -113 -78 -119 -27
-3 -49 -6 -50 -8 0 -1 -13 -30 -27 -65 -21 -49 -24 -65 -14 -75 63 -65 61 -98
-13 -171 -69 -68 -91 -73 -148 -28 l-38 31 -65 -25 -65 -26 0 -49 c-1 -70 -14
-79 -115 -82 -104 -3 -122 8 -125 77 -1 26 -5 49 -8 53 -4 3 -32 16 -64 29
l-58 24 -36 -29 c-59 -48 -81 -46 -148 19 -68 65 -78 92 -51 135 11 18 27 38
34 44 12 10 10 22 -12 74 -14 34 -26 63 -27 63 0 1 -22 5 -50 8 -71 10 -78 20
-79 121 -2 101 8 115 81 123 l48 4 26 63 26 64 -27 33 c-41 50 -43 72 -10 114
79 98 129 115 189 64 l34 -29 51 21 c28 11 57 22 64 25 6 3 12 13 13 22 4 85
9 98 41 110 36 13 169 5 186 -12z m780 -809 c7 -7 12 -22 12 -34 0 -15 10 -28
29 -37 26 -13 32 -13 58 4 36 24 36 24 74 -10 33 -31 43 -76 19 -91 -21 -13 6
-80 33 -80 35 0 43 -12 46 -63 3 -54 -10 -77 -44 -77 -34 0 -53 -51 -31 -85
16 -24 16 -27 0 -54 -9 -16 -29 -36 -44 -45 -26 -15 -29 -15 -50 2 -19 15 -28
16 -56 8 -27 -9 -34 -16 -34 -36 0 -36 -18 -50 -64 -50 -51 0 -63 8 -70 44 -3
16 -6 29 -8 30 -33 20 -55 21 -85 4 l-32 -20 -36 35 c-38 37 -44 61 -20 87 21
23 0 80 -30 80 -35 0 -47 16 -50 65 -2 52 13 75 49 75 29 0 52 62 30 81 -23
19 -16 49 20 85 40 40 45 41 74 14 20 -19 24 -20 52 -5 16 9 30 20 30 25 0 5
4 20 10 34 8 23 15 26 58 26 26 0 53 -5 60 -12z"/>
<path d="M3257 4300 c-116 -35 -172 -173 -117 -285 62 -124 226 -154 324 -59
158 154 6 408 -207 344z"/>
<path d="M4115 3681 c-85 -35 -89 -158 -5 -196 66 -30 135 6 146 77 8 47 -18
96 -61 114 -38 16 -51 16 -80 5z"/>
<path d="M3289 2333 c-1 -17 -10 -53 -37 -155 l-28 -106 25 -4 c64 -8 776 -2
776 7 0 6 -13 67 -30 138 l-30 127 -337 0 c-186 0 -338 -3 -339 -7z"/>
</g>
</svg>
