<svg version="1.2" xmlns="http://www.w3.org/2000/svg" viewBox="0 0 512 512" width="512" height="512">
	<title>New Project</title>
	<style>
		.s0 { fill: #f77062 } 
		.s1 { fill: #ffffff } 
		.s2 { fill: #000000 } 
		.s3 { opacity: 1;fill: #378eff } 
	</style>
	<path id="Layer 1" class="s0" d="m256 512c-141.6 0-256-114.4-256-256 0-141.6 114.4-256 256-256 141.6 0 256 114.4 256 256 0 141.6-114.4 256-256 256z"/>
	<path id="K" class="s1" d="m417.5 448h-70.6l-63.4-177 62.3-163.7h69.5l-67.9 163.7zm-136.5 0h-66v-341l66 0.1z"/>
	<path id="S" class="s2" d="m211.8 101.5c-5.1-7.1-13.7-8.7-23.9-8.7q-14.8 0-21.1 9.2-6.3 9.2-6.3 30 0 19 7.4 29.9 8 10.4 20 16.2 11.9 5.2 25.6 10.4c16.7 6.5 7.3 12.6 20 12.7 1.2 0 40.6 27.7 43.4 35.2 4.4 12.1-0.7 29.1-0.7 51 0 24.6 2.6 41.9-5.7 56.5-8 14.3-17.4 25.8-32.5 31.9q-22.2 9.2-52.4 9.2-30.2 0-51.8-8.6-21.1-8.7-32.5-30.6-11.3-21.9-11.3-61.6v-20.2q17.6 0 34.7 0 17.1 0 34.1 0v25.9q0 21.3 3.4 32.9 3.5 10.9 9.7 15.5 6.3 4.1 14.8 4.1 13.1 0 20.5-9.2 8-9.8 8-37.5 0-21.3-6.8-31.7-6.3-11-20.5-17.3-14.3-6.9-36.5-16.7-19.9-8.7-33-20.8-13.1-12.1-19.3-30.5-6.3-18.5-6.3-45 0-33.4 8.5-54.2 9.1-20.7 29.6-30 21.1-9.8 56.4-9.8 45.5 0 69.4 20.2c13.5 10.8 23.9 27 24.3 47.1 0 4.2-0.1 7.6-0.1 12.1l-0.2 41.1c-11 0-21.5 0-32.5 0q-15.9 0-33 0l-0.1-53.2c0 0 0-1-3.3-5.5z"/>
	<path id="i" class="s3" d="m215 134v27h66v-54h-66zm0.1 151.9c-0.1 53.4 0.1 97.1 0.4 97.1 0.3 0 4-0.9 8.3-2 4.2-1 10.5-3.1 13.9-4.5 3.5-1.4 9.3-4.4 13-6.8 3.7-2.3 9.5-7.3 13.1-11.2 3.7-4.1 7.8-9.9 9.8-14 1.8-3.9 3.8-9.8 5.1-13 2.2-5.5 2.3-5.5 2.3-43.9 0-40.9 0-41.1-0.9-44.1-1-3.2-2.5-8.9-4.2-12.5-1.8-3.8-5.5-8.9-8.8-12.3-3.1-3.2-8.7-7.9-12.6-10.5-3.8-2.5-13.3-7.6-21-11.3-7.7-3.7-15-7-16.2-7.4l-2.1-0.6z"/>
</svg>